<svg id="Layer_1" data-name="Layer 1" xmlns="http://www.w3.org/2000/svg" xmlns:xlink="http://www.w3.org/1999/xlink" viewBox="0 0 1600 1200"><defs><style>.cls-1{fill:none;}.cls-2{clip-path:url(#clip-path);}.cls-3{clip-path:url(#clip-path-2);}.cls-4{clip-path:url(#clip-path-3);}.cls-5{clip-path:url(#clip-path-4);}.cls-6{clip-path:url(#clip-path-5);}.cls-7{clip-path:url(#clip-path-6);}</style><clipPath id="clip-path"><rect class="cls-1" x="-0.5" width="1600" height="1200"/></clipPath><clipPath id="clip-path-2"><path class="cls-1" d="M1601.5,859.78h-698V489.58h207.07s6.72-11.71,17.57-16.05c11.47-4.58,30.95-6.48,39,0,3.18,2.57,16.05,11.46,16.05,16.05,0,.64,1.14,0,1.14,0h417.2Z"/></clipPath><clipPath id="clip-path-3"><rect class="cls-1" x="456.14" y="486.75" width="451.36" height="545.74"/></clipPath><clipPath id="clip-path-4"><rect class="cls-1" x="1047.5" y="253" width="552" height="237"/></clipPath><clipPath id="clip-path-5"><rect class="cls-1" x="565.85" width="489.65" height="490"/></clipPath><clipPath id="clip-path-6"><rect class="cls-1" x="1073.5" y="855.82" width="528" height="346.18"/></clipPath></defs><title>Artboard 2</title><g class="cls-2"><g class="cls-3"><image width="1920" height="1084" transform="translate(877.14 457.66) scale(0.39)" xlink:href="F:\PICS\socially relavent feature films indian\newton-poster.jpg"/></g><g class="cls-4"><image width="751" height="1080" transform="translate(433.02 439.68) scale(0.67)" xlink:href="F:\PICS\socially relavent feature films indian\Shubh Mangal Saavdhan Movie Poster Photo.jpg"/></g><g class="cls-5"><image width="1280" height="720" transform="translate(1010.13 215.62) scale(0.52)" xlink:href="F:\PICS\socially relavent feature films indian\MACHER JHOL.jpg"/></g><image width="1454" height="1080" transform="translate(-52.5) scale(0.44 0.45)" xlink:href="F:\PICS\socially relavent feature films indian\KASAV-MARATHI.jpg"/><g class="cls-6"><image width="550" height="630" transform="translate(543.65 -27.68) scale(0.97)" xlink:href="F:\PICS\socially relavent feature films indian\toilet ek prem katha.jpg"/></g><image width="1943" height="782" transform="translate(1047.5 -14) scale(0.34)" xlink:href="F:\PICS\socially relavent feature films indian\Village-Rockstars.jpg"/><image width="1316" height="1013" transform="translate(-27.7 488) scale(0.37)" xlink:href="F:\PICS\socially relavent feature films indian\Hindi-Medium.jpg"/><image width="2048" height="1566" transform="translate(621.5 856) scale(0.22)" xlink:href="F:\PICS\socially relavent feature films indian\Ventilator-Marathi-Movie.jpg"/><g class="cls-7"><image width="1280" height="720" transform="translate(1039.97 855.82) scale(0.48 0.48)" xlink:href="F:\PICS\socially relavent feature films indian\secret superstar.jpg"/></g><image width="1465" height="938" transform="translate(-0.5 856) scale(0.42 0.43)" xlink:href="F:\PICS\socially relavent feature films indian\badrinathkidulhania.jpg"/><rect class="cls-1" x="-0.5" width="1600" height="1200"/></g></svg>